HIERARCHY
ROOT Hips
{
  OFFSET -3.68211 100.295 -41.072
  CHANNELS 6 Xposition Yposition Zposition Zrotation Xrotation Yrotation
  JOINT RightUpLeg
  {
    OFFSET -8.9458 -8.66707 0.101652
    CHANNELS 3 Zrotation Xrotation Yrotation
    JOINT RightLeg
    {
      OFFSET 0 -44.4227 1.3727
      CHANNELS 3 Zrotation Xrotation Yrotation
      JOINT RightFoot
      {
        OFFSET 0.253549 -42.0924 -1.46059
        CHANNELS 3 Zrotation Xrotation Yrotation
        JOINT RightToes
        {
          OFFSET 0.04 -4.41509 8.4991
          CHANNELS 3 Zrotation Xrotation Yrotation
          End Site
          {
            OFFSET -0.08 -0.137448 9.77979
          }
        }
      }
    }
  }
  JOINT Spine
  {
    OFFSET 0 11.8905 0
    CHANNELS 3 Zrotation Xrotation Yrotation
    JOINT Spine1
    {
      OFFSET 0 25.6574 0.127663
      CHANNELS 3 Zrotation Xrotation Yrotation
      JOINT HEad
      {
        OFFSET 0 8.73416 0.011341
        CHANNELS 3 Zrotation Xrotation Yrotation
        End Site
        {
          OFFSET -0.29 12.7742 2.51395
        }
      }
      JOINT LeftShoulder1
      {
        OFFSET 8.99 -0.362252 -0.22
        CHANNELS 3 Zrotation Xrotation Yrotation
        JOINT LeftArm
        {
          OFFSET 10.2827 -0.00338 0.322123
          CHANNELS 3 Zrotation Xrotation Yrotation
          JOINT LeftForeArm
          {
            OFFSET 32.7669 0.099144 -1.42434
            CHANNELS 3 Zrotation Xrotation Yrotation
            JOINT LeftHand
            {
              OFFSET 27.5643 0.085362 1.02216
              CHANNELS 3 Zrotation Xrotation Yrotation
              End Site
              {
                OFFSET 16.7443 -0.6 1.50291
              }
            }
          }
        }
      }
      JOINT RightShoulder
      {
        OFFSET -8.99 -0.362252 -0.22
        CHANNELS 3 Zrotation Xrotation Yrotation
        JOINT RightArm
        {
          OFFSET -10.2827 -0.00338 0.322123
          CHANNELS 3 Zrotation Xrotation Yrotation
          JOINT RightForeArm
          {
            OFFSET -32.8971 0.099144 -1.42434
            CHANNELS 3 Zrotation Xrotation Yrotation
            JOINT RightHand
            {
              OFFSET -27.4921 0.085362 1.02216
              CHANNELS 3 Zrotation Xrotation Yrotation
              End Site
              {
                OFFSET -16.6312 -0.6 1.50291
              }
            }
          }
        }
      }
    }
  }
  JOINT LeftUpLeg
  {
    OFFSET 8.9458 -8.66707 0.101652
    CHANNELS 3 Zrotation Xrotation Yrotation
    JOINT LeftLeg
    {
      OFFSET 0 -44.4227 1.3727
      CHANNELS 3 Zrotation Xrotation Yrotation
      JOINT LeftFoot
      {
        OFFSET -0.253549 -42.0924 -1.46059
        CHANNELS 3 Zrotation Xrotation Yrotation
        JOINT LeftToes
        {
          OFFSET -0.04 -4.41509 8.4991
          CHANNELS 3 Zrotation Xrotation Yrotation
          End Site
          {
            OFFSET 0.08 -0.047448 9.77979
          }
        }
      }
    }
  }
}
MOTION
Frames:	10
Frame Time:	0.0166667
4.28599 97.6759 -43.0478 16.0283 15.2482 162.569 12.2424 31.12 -9.6453 20.8216 27.6974 -27.6635 -29.4424 1.21085 -0.829645 0.0462049 0.000533403 0.662642 3.20584 11.2638 -4.18931 -3.63594e-006 1.39769e-006 -0.01508 9.32009 -1.10465 -25.9738 3.97569e-016 -2.38542e-015 3.18055e-015 -109.28 -42.2464 -83.9884 -101.335 49.8058 -25.8221 25.5085 13.2116 -21.5948 15.0535 8.6466 -0.893087 102.415 -35.1637 87.5536 25.554 38.1095 62.2782 14.1816 19.42 7.0947 15.4403 -5.64323 -24.0846 -33.8384 8.6272 73.7532 21.8258 -1.55829 0.792846 6.8387e-009 1.56003e-007 -4.85535e-009 
4.65919 98.889 -42.9955 19.1215 18.5762 167.252 14.994 27.7906 -16.0359 23.7418 33.4774 -20.2422 -27.4909 0.944066 -1.006 0.0462049 0.000533403 0.662642 5.54642 14.7863 -7.83828 -1.86678e-006 0.00556168 -0.0182295 11.5 4.33677 -25.8058 5.96354e-016 7.95139e-016 -0 -107.65 -40.2208 -80.2855 -101.109 51.2782 -26.4116 25.5782 13.4109 -21.2436 18.2301 8.20678 -3.27278 99.0396 -37.2846 85.3829 25.0949 37.6525 63.3992 16.431 19.3241 -20.7777 17.3644 -3.06508 -30.2609 -33.4205 7.88605 73.3334 24.3044 -1.47384 0.890903 6.8387e-009 1.56003e-007 -4.85536e-009 
4.9536 100.135 -42.8378 21.868 21.746 171.167 15.8044 23.4222 -21.3045 26.2223 38.4882 -14.5324 -28.382 1.04738 -1.12452 0.0462049 0.000533403 0.662642 7.73841 17.4878 -10.7172 -2.73662e-007 0.00981171 -0.0196363 14.0738 10.9663 -25.446 -1.98785e-016 -7.95139e-016 -3.18055e-015 -105.668 -38.3971 -76.5321 -101.041 52.2292 -26.6748 25.8205 13.412 -21.1471 21.7429 8.02834 -6.14605 95.6876 -38.9982 83.18 23.4428 36.2088 61.4431 17.2405 19.621 1.88002 19.5686 -0.85737 -35.5898 -32.8981 7.14859 72.9797 26.6468 -1.48717 0.999061 6.8387e-009 1.56003e-007 -4.85536e-009 
5.19209 101.363 -42.5948 24.3943 24.75 174.384 14.5424 18.3847 -25.4735 28.7707 43.1833 -11.0816 -27.0941 0.735981 -1.32419 0.0462049 0.000533403 0.662642 9.71574 19.5617 -12.906 1.87243e-006 0.0152017 -0.0207626 16.9474 17.1439 -25.5736 2.5842e-015 -7.95139e-016 -3.18055e-015 -103.376 -36.8326 -72.4395 -98.7622 48.2475 -27.3019 22.7981 16.3295 -23.5503 25.5502 8.00674 -9.07277 92.3709 -40.6731 80.9961 22.5885 35.3009 60.904 16.1247 19.7066 -7.59763 21.9349 1.14854 -40.1865 -32.1039 6.39419 72.686 28.7617 -1.49454 1.09903 6.8387e-009 1.56003e-007 -4.85536e-009 
5.35306 102.434 -42.2617 26.7953 27.6042 176.962 11.8199 12.8801 -29.0827 31.4369 47.7829 -9.79555 -26.2185 0.63335 -1.36931 0.0462049 0.000533403 0.662642 11.4757 21.1729 -14.4964 0.00416999 0.0205117 -0.0216293 20.1301 22.8169 -26.1318 9.93923e-016 0 1.59028e-015 -100.701 -35.3417 -68.0227 -97.979 46.6128 -27.1969 21.5083 17.8934 -24.7509 29.5732 8.0894 -12.0974 89.0933 -42.2649 78.794 22.1627 34.7466 61.4018 16.4342 19.9494 4.12728 24.4293 2.9205 -44.1253 -31.2954 5.70597 72.5735 30.6289 -1.60048 1.21377 6.8387e-009 1.56003e-007 -4.85536e-009 
6.6545 103.084 -41.8788 29.1333 30.3295 178.956 10.5121 7.42756 -32.0706 29.6568 45.1278 -6.297 -23.971 6.50674 -0.862118 0.0462049 0.000533403 0.662642 13.0652 22.4506 -15.5833 0.00954852 0.0262517 -0.0222571 23.5864 27.9358 -27.0896 5.96354e-016 0 1.59028e-015 -97.6567 -33.7671 -63.3884 -97.7808 46.3626 -26.9836 31.864 9.51494 -13.188 33.7284 8.21188 -15.0489 85.8483 -43.9157 76.5929 21.8139 34.283 62.1682 15.857 20.0545 -2.55872 28.2229 3.45682 -47.8324 -32.3926 4.89525 75.0489 32.1662 -2.26522 1.39826 6.83871e-009 1.56003e-007 -4.85536e-009 
7.87963 103.426 -41.3952 31.4461 32.9509 -179.587 9.10116 2.46546 -34.4145 26.7365 41.4155 -2.9443 -21.2217 12.6362 -0.842343 0.0462049 0.000533403 0.662642 15.0262 24.5825 -16.3753 0.0217539 0.124762 -0.0226671 26.8332 31.2979 -27.8357 3.97569e-015 0 -0 -95.2033 -31.7983 -60.112 -97.5938 46.8589 -26.988 26.3199 14.438 -17.8761 37.5727 7.31855 -17.4308 82.801 -45.3371 74.4798 19.9236 33.3172 59.6752 15.4224 20.7134 8.90076 32.1217 3.7548 -51.0828 -33.5322 3.5905 79.1312 33.7769 -2.73227 1.62336 6.8387e-009 1.56003e-007 -4.85535e-009 
9.05086 103.46 -40.7991 33.7459 35.4823 -178.63 7.7559 -1.97213 -35.9762 23.2508 36.8405 -0.0878239 -17.9718 18.6158 -1.4361 0.0462049 0.000533403 0.662642 17.5323 27.349 -17.0842 0.0311951 0.122312 -0.0228798 29.5442 33.3847 -28.2563 6.36111e-015 1.59028e-015 7.95139e-016 -89.9275 -27.4924 -53.8975 -90.0249 46.115 -31.9663 26.5664 12.9981 -19.3607 40.8974 5.86627 -19.1168 79.9436 -46.6432 72.46 18.7222 32.6206 59.1576 15.1435 20.3732 -10.4582 35.8937 3.84818 -53.8868 -34.5269 2.64185 82.5533 34.8389 -3.10184 1.83175 6.8387e-009 1.56003e-007 -4.85536e-009 
10.1991 103.198 -40.0969 36.0132 37.9208 -178.134 6.46363 -5.91169 -36.613 19.8974 31.8122 1.79824 -14.8413 24.0297 -2.53636 0.0462049 0.000533403 0.662642 20.576 30.571 -17.8723 0.0352609 0.114942 -0.0229163 31.5154 34.3877 -28.2007 -6.4605e-016 7.95139e-016 1.59028e-015 -86.6459 -23.7463 -50.8771 -85.053 45.5291 -36.1406 21.702 16.7051 -23.6767 43.5185 4.00485 -19.9904 77.2886 -47.8692 70.4412 17.9128 31.9232 59.6999 14.6924 20.9229 9.51818 39.333 3.74115 -56.2119 -35.3809 2.16051 85.4865 35.4017 -3.43879 1.96171 6.8387e-009 1.56003e-007 -4.85536e-009 
11.3774 102.632 -39.3386 38.2229 40.2573 -178.053 4.88632 -9.59324 -36.153 17.468 27.1583 2.1501 -12.3818 28.3086 -4.03731 0.0462049 0.000533403 0.662642 24.0996 34.1171 -18.8939 0.0372994 0.109472 -0.0227974 32.6667 34.5292 -27.6103 -6.21202e-015 -7.95139e-016 -3.97569e-016 -84.6516 -20.5818 -49.9499 -81.2532 44.9854 -39.7379 22.8152 15.6776 -22.8543 45.4028 1.92244 -19.9065 74.8093 -49.1277 68.4172 17.2987 30.9439 60.2452 14.6366 20.6183 -2.84327 42.3222 3.48619 -58.0504 -36.0662 2.21817 88.0188 35.4873 -3.66743 1.95515 6.83871e-009 1.56003e-007 -4.85536e-009 
